<svg width="307" height="38" viewBox="0 0 307 38" fill="none" xmlns="http://www.w3.org/2000/svg">
<path d="M14.1932 37H0.752131V0.636363H14.1754C17.8804 0.636363 21.0705 1.36435 23.7457 2.82031C26.4328 4.26444 28.5043 6.34777 29.9602 9.07031C31.4162 11.781 32.1442 15.0244 32.1442 18.8004C32.1442 22.5883 31.4162 25.8435 29.9602 28.5661C28.5161 31.2886 26.4505 33.3778 23.7635 34.8338C21.0765 36.2779 17.8864 37 14.1932 37ZM9.54119 29.5071H13.8558C15.8918 29.5071 17.6141 29.1638 19.0227 28.4773C20.4432 27.7789 21.5144 26.6484 22.2365 25.0859C22.9704 23.5116 23.3374 21.4164 23.3374 18.8004C23.3374 16.1844 22.9704 14.1011 22.2365 12.5504C21.5026 10.9879 20.4195 9.8634 18.9872 9.17685C17.5668 8.47846 15.8149 8.12926 13.7315 8.12926H9.54119V29.5071ZM45.9581 21.446V37H37.2756V9.72727H45.532V14.7344H45.8338C46.4375 13.0653 47.4673 11.7573 48.9233 10.8104C50.3793 9.85156 52.1134 9.37216 54.1257 9.37216C56.0433 9.37216 57.7064 9.80421 59.1151 10.6683C60.5355 11.5206 61.6364 12.7161 62.4176 14.255C63.2107 15.782 63.6013 17.5694 63.5895 19.6172V37H54.907V21.3217C54.9188 19.8066 54.5341 18.6229 53.7528 17.7706C52.9834 16.9183 51.9122 16.4922 50.5391 16.4922C49.6276 16.4922 48.8227 16.6934 48.1243 17.0959C47.4377 17.4865 46.9051 18.0488 46.5263 18.7827C46.1593 19.5166 45.9699 20.4044 45.9581 21.446ZM81.6958 37.5149C78.8194 37.5149 76.3514 36.9231 74.2917 35.7393C72.2439 34.5556 70.6696 32.9103 69.5687 30.8033C68.4679 28.6844 67.9174 26.2341 67.9174 23.4524C67.9174 20.6589 68.4679 18.2086 69.5687 16.1016C70.6814 13.9827 72.2617 12.3314 74.3095 11.1477C76.3691 9.96401 78.8253 9.37216 81.6781 9.37216C84.1994 9.37216 86.3952 9.82789 88.2654 10.7393C90.1476 11.6508 91.6154 12.9411 92.6689 14.6101C93.7342 16.2673 94.2965 18.2145 94.3556 20.4517H86.2413C86.0756 19.0549 85.6021 17.96 84.8208 17.1669C84.0514 16.3738 83.0453 15.9773 81.8024 15.9773C80.7962 15.9773 79.9144 16.2614 79.1568 16.8295C78.3992 17.3859 77.8074 18.2145 77.3812 19.3153C76.9669 20.4044 76.7598 21.7538 76.7598 23.3636C76.7598 24.9735 76.9669 26.3348 77.3812 27.4474C77.8074 28.5483 78.3992 29.3828 79.1568 29.951C79.9144 30.5073 80.7962 30.7855 81.8024 30.7855C82.6073 30.7855 83.3175 30.6139 83.9331 30.2706C84.5604 29.9273 85.0753 29.4242 85.4778 28.7614C85.8803 28.0866 86.1348 27.2699 86.2413 26.3111H94.3556C94.2728 28.5601 93.7105 30.5251 92.6689 32.206C91.639 33.8868 90.189 35.1948 88.3187 36.13C86.4603 37.0533 84.2527 37.5149 81.6958 37.5149ZM105.564 37L94.9815 0.636363H104.694L110.18 24.4645H110.482L116.75 0.636363H124.669L130.937 24.5178H131.239L136.743 0.636363H146.438L135.873 37H127.403L120.852 14.9474H120.567L114.016 37H105.564ZM159.79 37.5149C156.937 37.5149 154.475 36.9527 152.403 35.8281C150.344 34.6918 148.758 33.076 147.645 30.9808C146.544 28.8738 145.994 26.3703 145.994 23.4702C145.994 20.6529 146.55 18.1908 147.663 16.0838C148.775 13.965 150.344 12.3196 152.368 11.1477C154.392 9.96401 156.777 9.37216 159.523 9.37216C161.465 9.37216 163.24 9.67401 164.85 10.2777C166.46 10.8814 167.851 11.7751 169.023 12.9588C170.195 14.1425 171.106 15.6044 171.757 17.3445C172.408 19.0727 172.734 21.0554 172.734 23.2926V25.4588H149.03V20.4162H164.655C164.643 19.4929 164.424 18.6702 163.998 17.9482C163.572 17.2261 162.986 16.6638 162.24 16.2614C161.506 15.8471 160.66 15.6399 159.701 15.6399C158.73 15.6399 157.86 15.8589 157.091 16.2969C156.321 16.723 155.712 17.3089 155.262 18.0547C154.812 18.7886 154.576 19.6231 154.552 20.5582V25.6896C154.552 26.8023 154.771 27.7789 155.209 28.6193C155.647 29.4479 156.268 30.093 157.073 30.5547C157.878 31.0163 158.837 31.2472 159.95 31.2472C160.719 31.2472 161.417 31.1406 162.045 30.9276C162.672 30.7145 163.211 30.4008 163.661 29.9865C164.11 29.5722 164.448 29.0632 164.673 28.4595L172.645 28.6903C172.313 30.4777 171.585 32.0343 170.461 33.3601C169.348 34.674 167.886 35.6979 166.075 36.4318C164.264 37.1539 162.169 37.5149 159.79 37.5149ZM184.856 37.4616C183.116 37.4616 181.572 37.1716 180.222 36.5916C178.885 35.9998 177.825 35.112 177.044 33.9283C176.274 32.7327 175.89 31.2353 175.89 29.4361C175.89 27.9209 176.156 26.6425 176.689 25.6009C177.221 24.5592 177.955 23.7128 178.89 23.0618C179.826 22.4107 180.903 21.9195 182.122 21.5881C183.341 21.2448 184.643 21.014 186.028 20.8956C187.579 20.7536 188.828 20.6056 189.775 20.4517C190.722 20.286 191.408 20.0552 191.834 19.7592C192.272 19.4515 192.491 19.0194 192.491 18.4631V18.3743C192.491 17.4628 192.178 16.7585 191.55 16.2614C190.923 15.7642 190.077 15.5156 189.011 15.5156C187.863 15.5156 186.94 15.7642 186.241 16.2614C185.543 16.7585 185.099 17.4451 184.91 18.321L176.902 18.0369C177.139 16.3797 177.748 14.9001 178.731 13.598C179.725 12.2841 181.086 11.2543 182.814 10.5085C184.555 9.75095 186.644 9.37216 189.082 9.37216C190.822 9.37216 192.426 9.57931 193.894 9.99361C195.362 10.3961 196.64 10.9879 197.729 11.7692C198.818 12.5386 199.659 13.4856 200.251 14.6101C200.854 15.7346 201.156 17.0189 201.156 18.4631V37H192.988V33.2003H192.775C192.29 34.1236 191.669 34.9048 190.911 35.544C190.165 36.1832 189.283 36.6626 188.265 36.9822C187.259 37.3018 186.123 37.4616 184.856 37.4616ZM187.537 31.7798C188.473 31.7798 189.313 31.5904 190.059 31.2116C190.816 30.8329 191.42 30.312 191.87 29.6491C192.32 28.9744 192.545 28.1932 192.545 27.3054V24.7131C192.296 24.8433 191.994 24.9616 191.639 25.0682C191.296 25.1747 190.917 25.2753 190.503 25.37C190.088 25.4647 189.662 25.5476 189.224 25.6186C188.786 25.6896 188.366 25.7547 187.964 25.8139C187.147 25.9441 186.448 26.1454 185.868 26.4176C185.3 26.6899 184.862 27.045 184.555 27.483C184.259 27.9091 184.111 28.4181 184.111 29.0099C184.111 29.9096 184.43 30.5961 185.069 31.0696C185.72 31.5431 186.543 31.7798 187.537 31.7798ZM221.859 9.72727V16.1193H204.654V9.72727H221.859ZM208.258 3.19318H216.941V28.424C216.941 28.9567 217.024 29.3887 217.189 29.7202C217.367 30.0398 217.622 30.2706 217.953 30.4126C218.284 30.5429 218.681 30.608 219.143 30.608C219.474 30.608 219.823 30.5784 220.19 30.5192C220.569 30.4482 220.853 30.389 221.042 30.3416L222.356 36.6094C221.942 36.7277 221.356 36.8757 220.599 37.0533C219.853 37.2308 218.959 37.3433 217.917 37.3906C215.881 37.4853 214.135 37.2486 212.68 36.6804C211.235 36.1004 210.129 35.2008 209.359 33.9815C208.602 32.7623 208.235 31.2294 208.258 29.3828V3.19318ZM235.558 21.446V37H226.875V0.636363H235.274V14.7344H235.575C236.191 13.0535 237.197 11.7396 238.594 10.7926C240.003 9.84564 241.725 9.37216 243.761 9.37216C245.678 9.37216 247.347 9.7983 248.768 10.6506C250.188 11.491 251.289 12.6806 252.07 14.2195C252.864 15.7583 253.254 17.5575 253.242 19.6172V37H244.56V21.3217C244.572 19.8066 244.193 18.6229 243.423 17.7706C242.654 16.9183 241.571 16.4922 240.174 16.4922C239.263 16.4922 238.458 16.6934 237.759 17.0959C237.073 17.4865 236.534 18.0488 236.144 18.7827C235.765 19.5166 235.57 20.4044 235.558 21.446ZM271.411 37.5149C268.558 37.5149 266.096 36.9527 264.025 35.8281C261.965 34.6918 260.379 33.076 259.266 30.9808C258.165 28.8738 257.615 26.3703 257.615 23.4702C257.615 20.6529 258.171 18.1908 259.284 16.0838C260.396 13.965 261.965 12.3196 263.989 11.1477C266.013 9.96401 268.398 9.37216 271.145 9.37216C273.086 9.37216 274.861 9.67401 276.471 10.2777C278.081 10.8814 279.472 11.7751 280.644 12.9588C281.816 14.1425 282.727 15.6044 283.378 17.3445C284.029 19.0727 284.355 21.0554 284.355 23.2926V25.4588H260.651V20.4162H276.276C276.264 19.4929 276.045 18.6702 275.619 17.9482C275.193 17.2261 274.607 16.6638 273.861 16.2614C273.127 15.8471 272.281 15.6399 271.322 15.6399C270.351 15.6399 269.481 15.8589 268.712 16.2969C267.943 16.723 267.333 17.3089 266.883 18.0547C266.433 18.7886 266.197 19.6231 266.173 20.5582V25.6896C266.173 26.8023 266.392 27.7789 266.83 28.6193C267.268 29.4479 267.889 30.093 268.694 30.5547C269.499 31.0163 270.458 31.2472 271.571 31.2472C272.34 31.2472 273.038 31.1406 273.666 30.9276C274.293 30.7145 274.832 30.4008 275.282 29.9865C275.731 29.5722 276.069 29.0632 276.294 28.4595L284.266 28.6903C283.935 30.4777 283.207 32.0343 282.082 33.3601C280.969 34.674 279.507 35.6979 277.696 36.4318C275.885 37.1539 273.79 37.5149 271.411 37.5149ZM288.789 37V9.72727H297.223V14.6989H297.507C298.004 12.8996 298.815 11.562 299.94 10.6861C301.064 9.79829 302.372 9.3544 303.864 9.3544C304.266 9.3544 304.681 9.384 305.107 9.44318C305.533 9.49053 305.929 9.56747 306.296 9.67401V17.2202C305.882 17.0781 305.338 16.9657 304.663 16.8828C304 16.8 303.408 16.7585 302.887 16.7585C301.857 16.7585 300.928 16.9893 300.1 17.451C299.283 17.9008 298.638 18.5341 298.164 19.3509C297.703 20.1558 297.472 21.1027 297.472 22.1918V37H288.789Z" fill="white"/>
</svg>